<svg viewBox="0 0 338.76 438.55" xmlns="http://www.w3.org/2000/svg" xmlns:xlink="http://www.w3.org/1999/xlink"><clipPath id="a"><path d="m0 0h338.76v219.27h-338.76z"/></clipPath><clipPath id="b"><path d="m0 219.27h338.76v219.27h-338.76z"/></clipPath><g clip-path="url(#a)"><path d="m202.17 219.27c.02-4.92-19.23-13.11-19.23-13.11-3.86-1.94-8.44.57-8.93 4.86-.35 3.09 0 6.33 2.3 8.25h25.87z"/><path d="m56.43 57.51 13.18 50.25c1.49 5.66 8.58 7.55 12.68 3.37l28.17-28.71c3.17-3.23 1.98-8.66-2.25-10.27l-47.84-18.18c-2.27-.86-4.56 1.2-3.94 3.54z"/><path d="m283.62 219.27c0-29.25-3.73-59.44-16.76-80.43s-30.37-36.91-52.03-47.75c-19.35-9.68-40.03-15.04-62.05-16.08-5.85-.27-11.65-1.36-17.23-3.13l-88.12-27.92c0 45.79 32.34 129.52 32.34 175.32h-50.01c.36-35.4-22.81-171.3-29.65-210.59-.89-5.16 3.68-9.58 8.81-8.54l122.2 24.73c45.82 7.18 87.42 11.14 118.59 29.55 31.16 18.42 53.88 42.16 68.14 71.24 14.26 29.09 20.91 61.25 20.91 93.59"/></g><g clip-path="url(#b)"><path d="m202.17 219.27c.02 4.92-19.23 13.11-19.23 13.11-3.86 1.94-8.44-.57-8.93-4.86-.35-3.09 0-6.33 2.3-8.25h25.87z"/><path d="m56.43 381.03 13.18-50.25c1.49-5.66 8.58-7.55 12.68-3.37l28.17 28.71c3.17 3.23 1.98 8.66-2.25 10.27l-47.84 18.18c-2.27.86-4.56-1.2-3.94-3.54z"/><path d="m283.62 219.27c0 29.25-3.73 59.44-16.76 80.43s-30.37 36.91-52.03 47.75c-19.35 9.68-40.03 15.04-62.05 16.08-5.85.27-11.65 1.36-17.23 3.13l-88.13 27.93c0-45.79 32.34-129.52 32.34-175.32h-50c.36 35.39-22.81 171.29-29.65 210.59-.9 5.16 3.68 9.58 8.8 8.54l122.2-24.73c45.82-7.18 87.42-11.14 118.59-29.55 31.16-18.42 53.88-42.16 68.14-71.24 14.26-29.09 20.91-61.25 20.91-93.59"/></g></svg>